<svg width="16" height="15" viewBox="0 0 16 15" fill="none" xmlns="http://www.w3.org/2000/svg">
<path d="M0.619995 5.46169C0.619995 3.59193 0.619995 2.65704 0.983877 1.94289C1.30396 1.3147 1.8147 0.803958 2.44289 0.483877C3.15704 0.119995 4.09193 0.119995 5.96169 0.119995H10.0383C11.9081 0.119995 12.843 0.119995 13.5571 0.483877C14.1853 0.803958 14.696 1.3147 15.0161 1.94289C15.38 2.65704 15.38 3.59193 15.38 5.46169V9.5383C15.38 11.4081 15.38 12.343 15.0161 13.0571C14.696 13.6853 14.1853 14.196 13.5571 14.5161C12.843 14.88 11.9081 14.88 10.0383 14.88H5.96169C4.09193 14.88 3.15704 14.88 2.44289 14.5161C1.8147 14.196 1.30396 13.6853 0.983877 13.0571C0.619995 12.343 0.619995 11.4081 0.619995 9.5383V5.46169Z" fill="#001E36"/>
<path d="M3.78284 10.935V4.44436C3.78284 4.40024 3.80129 4.37499 3.84434 4.37499C4.47988 4.37499 5.11514 4.33714 5.75082 4.33714C6.78239 4.33714 7.8993 4.68985 8.2908 5.76897C8.38305 6.03391 8.43224 6.30513 8.43224 6.58899C8.43224 7.13147 8.30925 7.57928 8.06324 7.93252C7.37605 8.91923 6.18503 8.90389 5.1174 8.90389V10.9287C5.12573 10.9886 5.07465 11.017 5.02515 11.017H3.85664C3.80744 11.017 3.78284 10.9917 3.78284 10.935ZM5.12352 5.59238V7.71175C5.54687 7.74275 5.98983 7.74612 6.39657 7.61086C6.84564 7.48129 7.09155 7.09262 7.09155 6.62684C7.10399 6.22996 6.88776 5.84915 6.5196 5.70592C6.11776 5.53882 5.5573 5.5288 5.12352 5.59238Z" fill="#31A8FF"/>
<path d="M12.2681 7.29305C12.082 7.19495 11.8838 7.1232 11.6789 7.07977C11.4156 7.01783 10.3773 6.80086 10.3768 7.34381C10.3861 7.64692 10.8672 7.79542 11.0798 7.88203C11.8262 8.13827 12.6708 8.5963 12.6542 9.51707C12.677 10.6633 11.5665 11.1215 10.6145 11.1216C10.1189 11.1267 9.60263 11.05 9.14908 10.8372C9.10575 10.8143 9.07791 10.7653 9.07976 10.7154V9.61859C9.07486 9.57463 9.12209 9.5362 9.15899 9.56783C9.60337 9.83657 10.1301 9.96709 10.6442 9.97404C10.8711 9.97404 11.3209 9.95206 11.3175 9.61859C11.3175 9.29862 10.7795 9.15149 10.565 9.07021C10.2541 8.95924 9.9593 8.80547 9.68871 8.61322C9.31054 8.34349 9.07333 7.91102 9.07976 7.43522C9.07755 6.35595 10.0998 5.8715 11.0205 5.87129C11.4508 5.86771 11.913 5.8996 12.3137 6.0744C12.3713 6.09132 12.3832 6.15205 12.383 6.2064V7.23211C12.3866 7.29579 12.3159 7.31746 12.2681 7.29305Z" fill="#31A8FF"/>
</svg>
